<?xml version="1.0" encoding="utf-8"?>
<!-- Generator: Adobe Illustrator 17.0.0, SVG Export Plug-In . SVG Version: 6.00 Build 0)  -->
<!DOCTYPE svg PUBLIC "-//W3C//DTD SVG 1.1//EN" "http://www.w3.org/Graphics/SVG/1.1/DTD/svg11.dtd">
<svg version="1.1" id="Layer_1" xmlns="http://www.w3.org/2000/svg" xmlns:xlink="http://www.w3.org/1999/xlink" x="0px" y="0px"
	 width="22px" height="22px" viewBox="0 0 22 22" enable-background="new 0 0 22 22" xml:space="preserve">
<g>
	<path d="M14.008,0c-4.418,0-8,3.582-8,8c0,1.665,0.509,3.211,1.38,4.491l-6.448,6.448c-0.586,0.586-0.586,1.535,0,2.121
		C1.232,21.354,1.616,21.5,2,21.5s0.768-0.146,1.061-0.439l6.447-6.447C10.79,15.488,12.339,16,14.008,16c4.418,0,8-3.582,8-8
		S18.426,0,14.008,0z M14.031,13c-0.841,0-1.621-0.227-2.316-0.594c-0.907-0.478-1.642-1.219-2.112-2.13
		C9.25,9.59,9.031,8.824,9.031,8c0-2.761,2.239-5,5-5s5,2.239,5,5S16.793,13,14.031,13z"/>
</g>
</svg>
